# AST/ASF file generated using VICON BodyLanguage
# -----------------------------------------------
:version 1.10
:name VICON
:units
  mass 1.0
  length 0.45
  angle deg
:documentation
   .ast/.asf automatically generated from VICON data using
   VICON BodyBuilder and BodyLanguage model FoxedUp or BRILLIANT.MOD
:root
   order TX TY TZ RX RY RZ
   axis XYZ
   position 0 0 0  
   orientation 0 0 0 
:bonedata
  begin
     id 1 
     name lhipjoint
     direction 0.693937 -0.600361 0.397515 
     length 2.37164 
     axis 0 0 0  XYZ
  end
  begin
     id 2 
     name lfemur
     direction 0.34202 -0.939693 0  
     length 6.18497  
     axis 0 0 20  XYZ
    dof rx ry rz
    limits (-160.0 20.0)
           (-70.0 70.0)
           (-60.0 70.0)
  end
  begin
     id 3 
     name ltibia
     direction 0.34202 -0.939693 0   
     length 6.91601   
     axis 0 0 20   XYZ
    dof rx
    limits (-10.0 170.0)
  end
  begin
     id 4 
     name lfoot
     direction 0.0978718 -0.2689 0.958182   
     length 1.81453   
     axis -90 7.62852e-016 20   XYZ
    dof rx rz
    limits (-45.0 90.0)
           (-70.0 20.0)
  end
  begin
     id 5 
     name ltoes
     direction 1.53569e-011 -4.21951e-011 1   
     length 0.912052   
     axis -90 7.62852e-016 20   XYZ
    dof rx
    limits (-90.0 20.0)
  end
  begin
     id 6 
     name rhipjoint
     direction -0.643996 -0.637876 0.422354   
     length 2.23216  
     axis 0 0 0  XYZ 
  end
  begin
     id 7 
     name rfemur
     direction -0.34202 -0.939693 0   
     length 6.15404   
     axis 0 0 -20   XYZ
    dof rx ry rz
    limits (-160.0 20.0)
           (-70.0 70.0)
           (-70.0 60.0)
  end
  begin
     id 8 
     name rtibia
     direction -0.34202 -0.939693 0   
     length 6.86744   
     axis 0 0 -20   XYZ
    dof rx
    limits (-10.0 170.0)
 end
 begin
     id 9 
     name rfoot
     direction -0.118701 -0.326127 0.937844   
     length 1.9243  
     axis -90 -7.62852e-016 -20   XYZ
    dof rx rz
    limits (-45.0 90.0)
           (-20.0 70.0)
  end
  begin
     id 10 
     name rtoes
     direction -1.5356e-011 -4.2181e-011 1   
     length 0.958865   
     axis -90 -7.62852e-016 -20   XYZ
    dof rx
    limits (-90.0 20.0)
  end
  begin
     id 11 
     name lowerback
     direction 0.0310826 0.968686 -0.246334   
     length 2.00021   
     axis 0 0 0   XYZ
    dof rx ry rz
    limits (-20.0 45.0)
           (-30.0 30.0)
           (-30.0 30.0)
  end
  begin
     id 12 
     name upperback
     direction -0.0152834 0.999474 -0.0286152   
     length 2.03728   
     axis 0 0 0   XYZ
    dof rx ry rz
    limits (-20.0 45.0)
           (-30.0 30.0)
           (-30.0 30.0)
  end
  begin
     id 13 
     name thorax
     direction -0.0323701 0.996236 0.0804149   
     length 2.16   
     axis 0 0 0   XYZ
    dof rx ry rz
    limits (-20.0 45.0)
           (-30.0 30.0)
           (-30.0 30.0)
  end
  begin
     id 14 
     name lowerneck
     direction 0.0307935 0.982251 0.185027   
     length 1.43558   
     axis 0 0 0   XYZ
    dof rx ry rz
    limits (-20.0 45.0)
           (-30.0 30.0)
           (-30.0 30.0)
  end
  begin
     id 15 
     name upperneck
     direction -0.0927153 0.994775 0.0427454   
     length 1.44603   
     axis 0 0 0   XYZ
    dof rx ry rz
    limits (-20.0 45.0)
           (-30.0 30.0)
           (-30.0 30.0)
  end
  begin
     id 16
     name head
     direction -0.0341265 0.999406 -0.00472033  
     length 1.45931  
     axis 0 0 0   XYZ
    dof rx ry rz
    limits (-20.0 45.0)
           (-30.0 30.0)
           (-30.0 30.0)
  end
  begin
     id 17 
     name lclavicle
     direction 0.820755 0.555306 -0.134151  
     length 2.66075  
     axis 0 0 0   XYZ
    dof ry rz
    limits (-20.0 10.0)
           (0.0 20.0)
  end
  begin
     id 18 
     name lhumerus
     direction 1 -4.48971e-011 5.24853e-027   
     length 5.0546   
     axis -180 -30 -90   XYZ
    dof rx ry rz
    limits (-60.0 90.0)
           (-90.0 90.0)
           (-90.0 90.0)
  end
  begin
     id 19
     name lradius
     direction 1 -4.48971e-011 2.76575e-028   
     length 3.39013   
     axis -180 -30 -90   XYZ
    dof rx
    limits (-10.0 170.0)
  end
  begin
     id 20
     name lwrist
     direction 1 -4.48939e-011 -2.27826e-027   
     length 1.69507   
     axis 2.17013e-015 90 90   XYZ
    dof ry
    limits (-180.0 0.0)
 end
  begin
     id 21 
     name lhand
     direction 1 -4.49009e-011 -4.55652e-027   
     length 0.572425   
     axis 2.90745e-015 90 90   XYZ
    dof rx rz
    limits (-90.0 90.0)
           (-45.0 45.0)
  end
  begin
     id 22 
     name lfingers
     direction 1 -4.48955e-011 -9.11303e-027   
     length 0.461504   
     axis 5.81489e-015 90 90   XYZ
    dof rx
    limits (0.0 90.0)
  end
  begin
     id 23
     name lthumb
     direction 0.707107 -6.34929e-011 0.707107   
     length 0.66263   
     axis -90 45 2.85299e-015   XYZ
    dof rx rz
    limits (-45.0 45.0)
           (-45.0 45.0)
  end
  begin
     id 24 
     name rclavicle
     direction -0.754477 0.632921 -0.173712   
     length 2.73081  
     axis 0 0 0   XYZ 
    dof ry rz
    limits (-10.0 20.0)
           (-20.0 0.0)
  end
  begin
     id 25 
     name rhumerus
     direction -1 -4.48969e-011 5.1496e-027  
     length 5.0701   
     axis -180 30 90   XYZ
    dof rx ry rz
    limits (-90.0 60.0)
           (-90.0 90.0)
           (-90.0 90.0)
  end
  begin
     id 26 
     name rradius
     direction -1 -4.48967e-011 -7.15624e-028   
     length 3.14957   
     axis -180 30 90   XYZ
    dof rx
    limits (-10.0 170.0)
  end
  begin
     id 27 
     name rwrist
     direction -1 -4.48938e-011 -2.27826e-027   
     length 1.57479   
     axis 2.17013e-015 -90 -90   XYZ
    dof ry
    limits (-180.0 0.0)
  end
  begin
     id 28
     name rhand
     direction -1 -4.49008e-011 -4.55652e-027   
     length 0.718191   
     axis 2.90745e-015 -90 -90   XYZ
    dof rx rz
    limits (-90.0 90.0)
           (-45.0 45.0)
  end
  begin
     id 29
     name rfingers
     direction -1 -4.48953e-011 -9.11303e-027   
     length 0.579024   
     axis 5.81489e-015 -90 -90   XYZ
    dof rx
    limits (0.0 90.0)
  end
  begin
     id 30
     name rthumb
     direction -0.707107 -6.34937e-011 0.707107   
     length 0.831366   
     axis -90 -45 -2.85299e-015   XYZ
    dof rx rz
    limits (-45.0 45.0)
           (-45.0 45.0)
  end
:hierarchy
  begin
    root lhipjoint rhipjoint lowerback
    lhipjoint lfemur
    lfemur ltibia
    ltibia lfoot
    lfoot ltoes
    rhipjoint rfemur
    rfemur rtibia
    rtibia rfoot
    rfoot rtoes
    lowerback upperback
    upperback thorax
    thorax lowerneck lclavicle rclavicle
    lowerneck upperneck
    upperneck head
    lclavicle lhumerus
    lhumerus lradius
    lradius lwrist
    lwrist lhand lthumb
    lhand lfingers
    rclavicle rhumerus
    rhumerus rradius
    rradius rwrist
    rwrist rhand rthumb
    rhand rfingers
  end

#!OML:ASF H:\Male1\Project 1\Capture day 1\Session 1\Male1.ASF
:FULLY-SPECIFIED
:DEGREES
67
root 27.5325 15.6301 0.290426 -30.3761 98.5413 -33.9633
lowerback 4.66122 -2.25192 -7.02172
upperback 3.38787 -3.12373 -1.47832
thorax 1.19456 -1.62543 2.50281
lowerneck -10.6061 4.57795 5.82615
upperneck -3.07499 5.61656 -5.60004
head 1.20415 2.72558 -2.56412
rclavicle 9.0447e-015 -3.57812e-015
rhumerus -83.5127 9.38592 -96.1017
rradius 95.8536
rwrist -32.8058
rhand -33.1356 23.8854
rfingers 7.12502
rthumb -6.34509 -5.99961
lclavicle 9.0447e-015 -3.57812e-015
lhumerus -35.5471 -27.3592 99.5326
lradius 133.315
lwrist 8.94519
lhand -22.6575 -13.5861
lfingers 7.12502
lthumb 3.77381 16.3602
rfemur -35.7905 8.80486 13.1747
rtibia 36.3142
rfoot -27.2631 -25.157
rtoes -36.3377
lfemur 21.6789 -10.7663 -32.063
ltibia 31.3525
lfoot -5.34636 10.5812
ltoes -17.4683
68
root 28.476 15.6518 0.276731 1.82234 97.738 -0.717585
lowerback 4.81743 -2.665 -1.91623
upperback 3.7623 -3.52337 -0.112335
thorax 1.28148 -1.76176 1.07994
lowerneck -11.0859 4.81259 5.9049
upperneck -2.50173 5.90513 -5.71376
head 1.50249 2.85653 -2.58961
rclavicle -3.18055e-014 1.11319e-014
rhumerus -84.3413 8.32019 -94.5716
rradius 96.8981
rwrist -31.659
rhand -33.2201 22.6505
rfingers 7.12502
rthumb -6.42665 -7.23197
lclavicle -3.18055e-014 1.11319e-014
lhumerus -36.7476 -28.3742 100.955
lradius 134.722
lwrist 8.21786
lhand -23.1594 -14.9074
lfingers 7.12502
lthumb 3.28914 15.0469
rfemur -33.8142 13.0181 16.5145
rtibia 29.808
rfoot -31.0356 -28.0867
rtoes -30.4198
lfemur 23.2123 -10.0935 -26.3756
ltibia 34.9767
lfoot -7.24313 13.2175
ltoes -12.576
69
root 29.3899 15.5924 0.272023 9.66681 98.1332 7.97481
lowerback 5.2648 -2.88828 -0.378015
upperback 4.05589 -3.75623 0.315741
thorax 1.27057 -1.84726 0.686343
lowerneck -11.252 4.93037 6.38866
upperneck -2.38378 6.01453 -6.49437
head 1.63343 2.89002 -2.93461
rclavicle 6.55989e-015 -3.57812e-015
rhumerus -84.3734 7.62376 -93.3308
rradius 96.7921
rwrist -31.8455
rhand -33.2663 23.4002
rfingers 7.12502
rthumb -6.47128 -6.48096
lclavicle 6.55989e-015 -3.57812e-015
lhumerus -38.4791 -29.0763 102.299
lradius 134.845
lwrist 9.14685
lhand -24.4017 -17.574
lfingers 7.12502
lthumb 2.08945 12.3955
rfemur -32.3076 15.5353 16.7517
rtibia 25.4424
rfoot -32.0441 -29.7734
rtoes -27.2383
lfemur 23.3342 -9.25988 -24.1783
ltibia 40.1053
lfoot -9.39271 15.4889
ltoes -9.57093
70
root 30.2803 15.4685 0.269555 -0.175521 98.1612 -1.03226
lowerback 6.05736 -2.95271 -1.37434
upperback 4.2954 -3.86943 0.0267937
thorax 1.12838 -1.91448 0.984363
lowerneck -10.8843 5.08014 6.18772
upperneck -2.7931 6.24771 -6.38978
head 1.43467 3.01892 -2.8555
rclavicle -5.26282e-014 1.5704e-014
rhumerus -83.8641 7.12975 -92.3328
rradius 97.1561
rwrist -33.0395
rhand -33.2463 23.6753
rfingers 7.12502
rthumb -6.45197 -6.20644
lclavicle -5.26282e-014 1.5704e-014
lhumerus -40.3755 -28.8259 103.319
lradius 134.182
lwrist 9.93551
lhand -25.4562 -17.4222
lfingers 7.12502
lthumb 1.07097 12.5549
rfemur -30.8039 14.194 16.1446
rtibia 23.913
rfoot -27.8799 -28.5748
rtoes -31.6552
lfemur 22.6142 -8.25385 -24.659
ltibia 45.8933
lfoot -9.74072 16.7966
ltoes -8.36837
71
root 31.1393 15.2624 0.248319 -8.9462 98.5414 -8.55437
lowerback 7.38287 -2.90417 -1.54528
upperback 4.62755 -3.79968 -0.464445
thorax 0.715827 -1.8623 0.635154
lowerneck -10.5721 4.83497 6.65754
upperneck -3.00672 5.89516 -7.2867
head 1.34492 2.83092 -3.2791
rclavicle -2.50469e-014 4.57205e-015
rhumerus -82.3958 6.58867 -91.6396
rradius 97.149
rwrist -34.9134
rhand -33.3621 22.1432
rfingers 7.12502
rthumb -6.5638 -7.73508
lclavicle -2.50469e-014 4.57205e-015
lhumerus -42.4478 -27.7772 103.748
lradius 132.243
lwrist 10.6647
lhand -24.6927 -15.7523
lfingers 7.12502
lthumb 1.80834 14.2198
rfemur -30.117 10.6282 16.6162
rtibia 26.7772
rfoot -25.6677 -24.0451
rtoes -34.0336
lfemur 21.4329 -7.50231 -25.0895
ltibia 52.3471
lfoot -11.2353 17.0487
ltoes -9.48027
72
root 31.9881 15.0482 0.247348 -16.6445 99.2826 -15.3282
lowerback 8.1339 -2.86621 -2.46797
upperback 5.26073 -3.76855 -0.676074
thorax 1.00822 -1.85226 0.947541
lowerneck -10.6715 4.77347 6.47385
upperneck -3.43263 5.82773 -7.3123
head 1.21054 2.80539 -3.25748
rclavicle 8.29926e-015 -3.27995e-015
rhumerus -79.5747 6.60925 -90.918
rradius 96.6854
rwrist -35.2772
rhand -34.2965 20.4824
rfingers 7.12502
rthumb -7.4658 -9.36582
lclavicle 8.29926e-015 -3.27995e-015
lhumerus -43.5074 -25.6876 103.372
lradius 128.789
lwrist 11.3321
lhand -22.6667 -13.5157
lfingers 7.12502
lthumb 3.76499 16.4308
rfemur -30.6605 6.87856 16.8996
rtibia 32.6372
rfoot -22.2464 -18.8701
rtoes -36.8186
lfemur 18.7817 -7.1596 -25.4055
ltibia 59.1424
lfoot -11.9268 16.6909
ltoes -12.941
73
root 32.7908 14.8294 0.2685 -15.1417 99.5902 -13.5977
lowerback 8.85947 -2.75715 -2.29877
upperback 5.38569 -3.61337 -0.394055
thorax 0.742386 -1.7664 1.16675
lowerneck -10.5462 4.48195 6.43513
upperneck -4.04953 5.44683 -7.60663
head 0.968392 2.62473 -3.37918
rclavicle 9.33356e-015 5.14355e-015
rhumerus -76.4668 6.9252 -90.5896
rradius 96.1384
rwrist -35.2043
rhand -35.3242 19.2385
rfingers 7.12502
rthumb -8.45762 -10.5721
lclavicle 9.33356e-015 5.14355e-015
lhumerus -44.7563 -23.169 102.876
lradius 124.054
lwrist 12.9052
lhand -21.2161 -11.3644
lfingers 7.12502
lthumb 5.16571 18.5527
rfemur -31.1683 3.87564 18.6824
rtibia 39.0282
rfoot -15.3819 -14.3666
rtoes -23.5419
lfemur 14.4364 -6.86034 -23.7857
ltibia 66.5828
lfoot -12.8595 15.6936
ltoes -10.9289
74
root 33.5755 14.6528 0.300328 -25.8688 99.7388 -25.0038
lowerback 9.24685 -2.10151 -4.48373
upperback 5.25289 -2.92003 -0.523346
thorax 0.484869 -1.45929 2.21906
lowerneck -9.90207 4.17685 6.36391
upperneck -5.36608 5.05876 -8.13319
head 0.4136 2.46187 -3.58948
rclavicle 1.93567e-014 3.8763e-015
rhumerus -72.4001 7.61296 -90.4123
rradius 94.9481
rwrist -34.9988
rhand -36.392 18.7453
rfingers 7.12502
rthumb -9.48804 -11.0211
lclavicle 1.93567e-014 3.8763e-015
lhumerus -45.8413 -20.5101 102.388
lradius 117.946
lwrist 15.161
lhand -20.8887 -9.3431
lfingers 7.12502
lthumb 5.48179 20.566
rfemur -33.1761 1.9527 18.0329
rtibia 45.3661
rfoot -15.0864 -12.7385
rtoes -18.1782
lfemur 8.26943 -6.35241 -24.9514
ltibia 73.4182
lfoot -13.5543 15.46
ltoes -10.7739
75
root 34.359 14.4631 0.297962 -7.18994 98.1641 -6.20465
lowerback 9.72145 -1.6793 -1.17825
upperback 5.25531 -2.10618 0.474885
thorax 0.0692298 -0.99268 1.3491
lowerneck -9.25738 3.92531 7.11244
upperneck -6.08968 4.6603 -9.25975
head 0.0930181 2.27025 -4.17214
rclavicle -5.97348e-014 1.39149e-014
rhumerus -68.1671 8.8332 -90.6834
rradius 92.8139
rwrist -35.0811
rhand -36.64 21.3097
rfingers 7.12502
rthumb -9.72733 -8.44562
lclavicle -5.97348e-014 1.39149e-014
lhumerus -47.3926 -17.7044 101.762
lradius 110.869
lwrist 17.8922
lhand -21.7284 -7.72688
lfingers 7.12502
lthumb 4.67101 22.2016
rfemur -32.9572 1.68093 22.6434
rtibia 50.1969
rfoot -19.0684 -10.0656
rtoes -6.19267
lfemur 2.07484 -6.0612 -20.869
ltibia 80.1893
lfoot -14.5809 14.6788
ltoes -14.3597
76
root 35.168 14.4079 0.320261 -2.596 97.9167 -1.14912
lowerback 10.5014 -1.37373 -1.18486
upperback 5.4598 -1.67545 1.10418
thorax -0.135977 -0.775142 1.98049
lowerneck -9.42397 3.93544 7.48906
upperneck -5.68271 4.64279 -9.96374
head 0.289177 2.24372 -4.49589
rclavicle 3.47873e-016 5.76476e-015
rhumerus -63.0134 11.445 -90.1984
rradius 92.2027
rwrist -32.5444
rhand -37.8879 12.9128
rfingers 7.12502
rthumb -10.9311 -16.7827
lclavicle 3.47873e-016 5.76476e-015
lhumerus -48.6938 -14.2535 101.219
lradius 103.928
lwrist 18.4156
lhand -25.0416 -2.68315
lfingers 7.12502
lthumb 1.47135 27.2915
rfemur -30.863 -0.190282 24.4376
rtibia 53.7006
rfoot -21.2166 -10.8343
rtoes -14.7108
lfemur -3.45393 -6.55618 -20.0557
ltibia 85.0479
lfoot -14.9742 14.848
ltoes -11.9569
77
root 35.9625 14.4165 0.344247 4.08564 98.0197 4.86063
lowerback 10.302 -1.34997 -0.93418
upperback 5.14747 -1.63081 1.5098
thorax -0.349426 -0.756379 2.25426
lowerneck -9.04422 4.28288 8.8476
upperneck -5.23248 4.98776 -11.7043
head 0.469846 2.38372 -4.81
rclavicle 5.06901e-015 1.98785e-015
rhumerus -58.912 16.2811 -92.2521
rradius 90.4453
rwrist -36.4328
rhand -40.142 25.172
rfingers 7.12502
rthumb -13.1047 -4.39629
lclavicle 5.06901e-015 1.98785e-015
lhumerus -50.8041 -10.3945 99.8235
lradius 97.469
lwrist 15.2362
lhand -28.3144 -3.12736
lfingers 7.12502
lthumb -1.68954 26.8457
rfemur -28.7774 -0.126763 26.0457
rtibia 55.2814
rfoot -24.0087 -12.8623
rtoes -21.7726
lfemur -10.5415 -7.63236 -19.2406
ltibia 88.6438
lfoot -15.8225 15.03
ltoes -8.89777
78
root 36.6932 14.2986 0.331238 -5.51722 97.7593 -5.80134
lowerback 9.99683 -1.04281 -1.87467
upperback 4.64583 -1.35546 0.705375
thorax -0.712873 -0.632561 1.92194
lowerneck -8.87741 4.31595 9.45583
upperneck -4.70179 5.0011 -11.6275
head 0.612084 2.36983 -4.88155
rclavicle 1.2424e-015 -4.57205e-015
rhumerus -54.6813 18.9355 -92.7509
rradius 90.7655
rwrist -34.5422
rhand -39.9132 19.1594
rfingers 7.12502
rthumb -12.8841 -10.4229
lclavicle 1.2424e-015 -4.57205e-015
lhumerus -54.0198 -7.85863 97.8395
lradius 93.4676
lwrist 14.6209
lhand -28.7762 -6.31221
lfingers 7.12502
lthumb -2.13558 23.6568
rfemur -27.0297 1.03149 25.0774
rtibia 56.4994
rfoot -27.2754 -13.6402
rtoes -21.3908
lfemur -18.3829 -8.63114 -21.7213
ltibia 90.9713
lfoot -15.3841 17.1241
ltoes -12.5473
79
root 37.4956 14.344 0.314825 -21.7788 97.4326 -23.1928
lowerback 8.82839 -0.505459 -3.75735
upperback 4.40352 -0.803825 -0.17387
thorax -0.328472 -0.387842 2.00177
lowerneck -8.61208 4.11774 9.29564
upperneck -4.79517 4.75845 -11.0304
head 0.491528 2.2599 -4.68864
rclavicle 9.29318e-015 -6.26172e-015
rhumerus -51.5009 21.0975 -92.6096
rradius 91.6958
rwrist -32.8225
rhand -37.872 20.9076
rfingers 7.12502
rthumb -10.9158 -8.78869
lclavicle 9.29318e-015 -6.26172e-015
lhumerus -57.5449 -5.76796 95.8247
lradius 91.7311
lwrist 13.8727
lhand -26.6541 -5.42165
lfingers 7.12502
lthumb -0.0860326 24.5581
rfemur -24.3564 1.0979 23.2747
rtibia 56.4996
rfoot -29.7371 -13.62
rtoes -22.786
lfemur -24.6987 -9.53542 -24.8074
ltibia 90.541
lfoot -15.3119 18.5268
ltoes -11.2632
80
root 38.3875 14.4208 0.27317 -46.41 99.5403 -47.6125
lowerback 7.60109 -0.102249 -7.31527
upperback 4.92394 -0.365252 -1.71661
thorax 0.908591 -0.234083 2.34843
lowerneck -9.11914 3.91832 8.61985
upperneck -4.48098 4.53192 -9.93977
head 0.58884 2.14644 -4.24176
rclavicle 1.55238e-014 -1.15792e-014
rhumerus -48.697 23.1275 -92.3824
rradius 93.4066
rwrist -31.2067
rhand -36.7852 21.6777
rfingers 7.12502
rthumb -9.86742 -8.07106
lclavicle 1.55238e-014 -1.15792e-014
lhumerus -61.1289 -4.70521 93.9844
lradius 91.1327
lwrist 12.2858
lhand -28.3838 -9.80731
lfingers 7.12502
lthumb -1.75657 20.1652
rfemur -18.9458 -0.386672 18.9453
rtibia 55.7216
rfoot -32.0481 -13.1266
rtoes -23.715
lfemur -27.2609 -11.518 -30.7212
ltibia 87.3618
lfoot -15.6039 19.9076
ltoes -13.2426
